<?xml version="1.0" encoding="iso-8859-1"?>
<!-- Generator: Adobe Illustrator 19.0.0, SVG Export Plug-In . SVG Version: 6.00 Build 0)  -->
<svg version="1.1" id="Capa_1" xmlns="http://www.w3.org/2000/svg" xmlns:xlink="http://www.w3.org/1999/xlink" x="0px" y="0px"
	fill="white" viewBox="0 0 511.999 511.999" style="enable-background:new 0 0 511.999 511.999;" xml:space="preserve">
<g>
	<g>
		<path d="M357.922,14.701c-54.116,0-99.038,40.089-106.645,92.128h-80.11L159.152,0H46.29v31.316h84.87l8.492,75.512H49.543
			l48.056,405.17h229.893l33.42-281.77c58.056-1.589,104.797-49.309,104.797-107.742C465.708,63.053,417.355,14.701,357.922,14.701z
			 M92.222,200.778l-7.429-62.633h58.381l7.044,62.633H92.222z M299.669,480.684H125.421l-3.057-25.781h180.365L299.669,480.684z
			 M332.868,200.778H181.733l-7.044-62.633h165.608L332.868,200.778z"/>
	</g>
</g>
<g>
</g>
<g>
</g>
<g>
</g>
<g>
</g>
<g>
</g>
<g>
</g>
<g>
</g>
<g>
</g>
<g>
</g>
<g>
</g>
<g>
</g>
<g>
</g>
<g>
</g>
<g>
</g>
<g>
</g>
</svg>
