<?xml version="1.0" encoding="utf-8"?>
<!-- Generator: Adobe Illustrator 25.2.1, SVG Export Plug-In . SVG Version: 6.00 Build 0)  -->
<svg version="1.1" id="Слой_1" xmlns="http://www.w3.org/2000/svg" xmlns:xlink="http://www.w3.org/1999/xlink" x="0px" y="0px"
	 viewBox="0 0 541.1 178.8" style="enable-background:new 0 0 541.1 178.8;" xml:space="preserve">
<style type="text/css">
	.st0{fill:#FFFFFF;}
	.st1{fill:none;stroke:#FFFFFF;stroke-width:3;stroke-miterlimit:10;}
</style>
<g>
	<g>
		<path class="st0" d="M0,109.5V35.3h19.4v29.7h3.2l11.8-29.7h20.8L40.3,70.5l15.2,39.1H35.1L22.6,76.3h-3.2v33.3H0z"/>
		<path class="st0" d="M76,109.5V35.3h25c7,0,12.3,0.8,15.9,2.4s6,3.8,7.3,6.5c1.3,2.7,1.9,5.9,1.9,9.5c0,4.6-1,8.1-2.9,10.5
			c-1.9,2.4-4.6,4.1-8.2,5.1c3.5,0.8,6.2,2,8,3.8c1.8,1.8,3.1,3.9,3.8,6.4c0.7,2.5,1.1,5.4,1.1,8.5c0,4.7-0.8,8.7-2.5,11.9
			s-4.5,5.6-8.5,7.2c-4,1.6-9.6,2.4-16.6,2.4H76z M95.3,64.7h5.5c2.5,0,4.3-0.8,5.3-2.4c1.1-1.6,1.6-3.9,1.6-6.9
			c0-2.9-0.6-5.2-1.7-6.9c-1.2-1.7-3.4-2.6-6.7-2.6h-4L95.3,64.7L95.3,64.7z M95.3,98.2H99c1.9,0,3.6-0.2,5.1-0.6s2.7-1.4,3.6-2.9
			c0.9-1.5,1.4-4,1.4-7.3c0-3.8-0.4-6.5-1.2-8.2s-1.9-2.7-3.4-3c-1.5-0.3-3.2-0.5-5.1-0.5h-4L95.3,98.2L95.3,98.2z"/>
		<path class="st0" d="M166.1,110.8c-3.5,0-6.5-0.9-9.1-2.7s-4.4-4.1-5.7-6.8c-1.3-2.7-1.9-5.6-1.9-8.5c0-4.6,0.9-8.5,2.7-11.7
			s4.1-5.8,7.1-8s6.2-4,9.8-5.5s7.2-2.9,10.8-4.2v-6.9c0-1.6-0.1-3-0.4-4.2s-0.8-2.1-1.5-2.8s-1.8-1-3.1-1s-2.4,0.3-3.1,0.8
			c-0.7,0.6-1.2,1.4-1.5,2.4c-0.3,1.1-0.5,2.2-0.6,3.5l-0.4,5.1l-18.4-0.8c0.4-8.7,2.7-15.2,6.9-19.4c4.1-4.2,10.4-6.3,18.8-6.3
			c7.5,0,13.1,2.1,16.7,6.2c3.6,4.2,5.4,9.6,5.4,16.4v34.5c0,2.9,0.1,5.5,0.2,7.8s0.3,4.3,0.5,6c0.2,1.8,0.4,3.3,0.6,4.6h-17.5
			c-0.3-1.9-0.6-3.9-0.9-6.2s-0.6-3.7-0.8-4.5c-0.9,3.1-2.5,5.8-4.9,8.3C173.3,109.6,170.1,110.8,166.1,110.8z M173.1,97.1
			c0.9,0,1.8-0.2,2.7-0.6c0.9-0.4,1.6-1,2.2-1.7c0.6-0.7,1.2-1.3,1.6-1.9V72.4c-1.8,1.1-3.5,2.2-5,3.3c-1.5,1.1-2.9,2.2-4,3.5
			s-2,2.7-2.6,4.2c-0.6,1.5-0.9,3.3-0.9,5.3c0,2.6,0.5,4.6,1.5,6.1C169.8,96.3,171.3,97.1,173.1,97.1z"/>
		<path class="st0" d="M224.1,109.5V35.3h19.4v11.9c2.5-4.4,5-7.6,7.4-9.7s5.3-3.2,8.7-3.2c0.6,0,1.1,0,1.6,0.1
			c0.5,0,0.9,0.2,1.3,0.3v19.5c-0.9-0.4-2-0.8-3.2-1.1c-1.2-0.3-2.4-0.4-3.7-0.4c-2.4,0-4.6,0.6-6.5,1.9s-3.8,3-5.5,5.3v49.6
			L224.1,109.5L224.1,109.5z"/>
		<path class="st0" d="M306.5,110.3c-5.1,0-9.2-0.8-12.1-2.4c-2.9-1.6-4.9-3.9-6-6.9s-1.7-6.6-1.7-10.9V48h-7.3V35.3h7.3V12.8h19.7
			v22.5h10.8V48h-10.8v40.3c0,2.3,0.6,4,1.7,4.9c1.2,1,2.8,1.5,4.8,1.5c1,0,2-0.1,3-0.2s1.8-0.2,2.6-0.3v15.2
			c-1.2,0.2-2.9,0.4-5.1,0.6C311.1,110.2,308.8,110.3,306.5,110.3z"/>
		<path class="st0" d="M341.3,109.5V35.3h15.4v41.9l20-41.9h15.2v74.2h-15.8V67.9l-19.5,41.6L341.3,109.5L341.3,109.5z"/>
		<path class="st0" d="M418,133.9V35.3h19.4v5.5c2.3-2.1,4.8-3.8,7.5-5c2.7-1.2,5.4-1.8,8.2-1.8c3,0,5.5,0.7,7.6,2
			c2.1,1.3,3.7,3.1,5,5.3c1.3,2.2,2.2,4.7,2.7,7.4c0.5,2.7,0.8,5.5,0.8,8.3v29c0,4.8-0.6,9-1.8,12.7c-1.2,3.7-3,6.6-5.5,8.7
			c-2.4,2.1-5.6,3.2-9.4,3.2c-2.7,0-5.2-0.6-7.8-1.9c-2.5-1.3-5-2.9-7.3-5v30.1L418,133.9L418,133.9z M443.8,97.8
			c1.6,0,2.9-0.5,3.7-1.5c0.8-1,1.4-2.3,1.7-3.9c0.3-1.6,0.5-3.4,0.5-5.4V56c0-1.8-0.2-3.4-0.5-4.9c-0.3-1.5-0.9-2.6-1.8-3.5
			s-2-1.3-3.5-1.3c-1.2,0-2.4,0.3-3.5,0.8c-1.1,0.6-2.1,1.3-3.1,2.1v46.5c1,0.7,2.1,1.2,3.1,1.6C441.5,97.7,442.6,97.8,443.8,97.8z"
			/>
		<path class="st0" d="M508.8,110.8c-3.5,0-6.5-0.9-9.1-2.7c-2.5-1.8-4.4-4.1-5.7-6.8c-1.3-2.7-1.9-5.6-1.9-8.5
			c0-4.6,0.9-8.5,2.7-11.7s4.2-5.8,7.1-8s6.2-4,9.8-5.5s7.2-2.9,10.8-4.2v-6.9c0-1.6-0.1-3-0.4-4.2s-0.8-2.1-1.5-2.8s-1.8-1-3.2-1
			s-2.4,0.3-3.2,0.8c-0.7,0.6-1.2,1.4-1.5,2.4s-0.5,2.2-0.6,3.5l-0.4,5.1l-18.4-0.8c0.4-8.7,2.7-15.2,6.9-19.4
			c4.2-4.2,10.4-6.3,18.8-6.3c7.5,0,13.1,2.1,16.7,6.2c3.6,4.2,5.4,9.6,5.4,16.4v34.5c0,2.9,0.1,5.5,0.2,7.8s0.3,4.3,0.5,6
			s0.4,3.3,0.6,4.6h-17.5c-0.3-1.9-0.6-3.9-0.9-6.2s-0.6-3.7-0.8-4.5c-0.9,3.1-2.5,5.8-4.9,8.3C516,109.6,512.8,110.8,508.8,110.8z
			 M515.9,97.1c0.9,0,1.8-0.2,2.7-0.6c0.8-0.4,1.6-1,2.2-1.7c0.6-0.7,1.2-1.3,1.6-1.9V72.4c-1.8,1.1-3.5,2.2-5,3.3
			c-1.5,1.1-2.9,2.2-4,3.5s-2,2.7-2.6,4.2c-0.6,1.5-0.9,3.3-0.9,5.3c0,2.6,0.5,4.6,1.5,6.1C512.5,96.3,514,97.1,515.9,97.1z"/>
	</g>
</g>
<g>
	<g>
		<path class="st0" d="M164.9,164.2c-3.5,0-6.2-0.8-8.3-2.5s-3.2-3.9-3.6-6.6l4.6-1c0.3,2.4,1.1,4.2,2.3,5.4c1.3,1.1,3,1.7,5.3,1.7
			c1.9,0,3.4-0.4,4.4-1.2s1.6-1.9,1.6-3.4c0-1-0.4-2.1-1.3-3.1c-0.9-1.1-2.2-2.2-4.1-3.3l-5.9-3.8c-2-1.2-3.4-2.4-4.4-3.7
			s-1.5-2.7-1.5-4.4c0-1.6,0.4-2.9,1.3-3.9c0.9-1.1,2.1-1.9,3.6-2.4s3.4-0.9,5.5-0.9c3.3,0,5.8,0.8,7.5,2.4c1.7,1.6,2.6,3.6,2.8,6.1
			l-3.9,0.9c-0.1-1.4-0.4-2.6-0.9-3.6c-0.5-0.9-1.2-1.6-2.1-2.1c-0.9-0.4-1.9-0.7-3.2-0.7c-1.7,0-3,0.3-4,1s-1.6,1.6-1.6,2.9
			c0,1,0.2,1.8,0.8,2.6c0.5,0.7,1.4,1.6,2.8,2.5l6.2,4.1c1.2,0.8,2.4,1.6,3.5,2.5c1.1,0.9,2,1.9,2.7,3c0.7,1.1,1.1,2.4,1.1,3.9
			c0,1.7-0.5,3.1-1.4,4.2c-0.9,1.1-2.2,2-3.9,2.6C169.2,163.9,167.2,164.2,164.9,164.2z"/>
		<path class="st0" d="M188,174.3v-42.8h5.5v2.7c0.9-0.8,2-1.5,3.4-2.2c1.4-0.7,3-1,5-1c2.1,0,3.8,0.4,5.1,1.1
			c1.3,0.7,2.3,1.7,3,2.9c0.7,1.2,1.2,2.6,1.4,4.1c0.2,1.5,0.4,3.1,0.4,4.7v6.7c0,2.8-0.3,5.1-0.9,7.2s-1.7,3.6-3.2,4.7
			c-1.5,1.1-3.6,1.7-6.3,1.7c-1.8,0-3.3-0.3-4.6-1s-2.4-1.4-3.2-2.1v13.1L188,174.3L188,174.3z M200.4,161c1.7,0,2.9-0.4,3.8-1.2
			s1.4-2,1.7-3.5s0.4-3.4,0.4-5.6v-6.9c0-2.1-0.1-3.9-0.4-5.3c-0.3-1.4-0.8-2.5-1.7-3.3c-0.9-0.7-2.1-1.1-3.9-1.1
			c-1.4,0-2.7,0.3-3.9,0.8c-1.2,0.6-2.1,1.1-2.9,1.7v21.9c0.8,0.6,1.8,1.2,3,1.7C197.7,160.8,199,161,200.4,161z"/>
		<path class="st0" d="M232.6,164.2c-1.7,0-3.2-0.3-4.5-1c-1.3-0.6-2.3-1.5-3.1-2.6s-1.1-2.3-1.1-3.6c0-1.6,0.3-3,1-4.2
			c0.6-1.1,1.7-2.2,3.1-3.1c1.4-0.9,3.2-1.8,5.4-2.7c2.2-0.9,5-1.9,8.2-2.9v-2.3c0-2-0.2-3.5-0.5-4.6c-0.3-1.1-0.9-1.9-1.7-2.4
			s-1.9-0.7-3.3-0.7c-1.2,0-2.2,0.2-3.1,0.5s-1.6,0.9-2.2,1.7c-0.6,0.8-0.8,1.9-0.8,3.3v1.1l-5.4-0.1c0.1-3.3,1-5.7,2.8-7.3
			c1.8-1.6,4.8-2.4,9-2.4c3.9,0,6.6,0.9,8.2,2.6c1.6,1.7,2.4,4.4,2.4,8.1v15.6c0,0.6,0,1.3,0,2.1c0,0.9,0.1,1.7,0.1,2.5
			c0.1,0.8,0.1,1.4,0.2,1.8h-4.9c-0.1-0.7-0.3-1.5-0.5-2.4c-0.2-0.9-0.3-1.6-0.3-2.1c-0.6,1.3-1.7,2.4-3.2,3.4
			C236.9,163.7,235,164.2,232.6,164.2z M234.4,160.7c1.1,0,2.1-0.2,3-0.6s1.7-0.9,2.4-1.5c0.7-0.6,1.3-1.2,1.7-1.8v-10
			c-2.2,0.9-4,1.6-5.5,2.2c-1.5,0.6-2.8,1.3-3.7,1.9c-1,0.6-1.7,1.4-2.1,2.1c-0.4,0.8-0.7,1.7-0.7,2.8c0,1.7,0.5,2.9,1.5,3.6
			C231.9,160.4,233.1,160.7,234.4,160.7z"/>
		<path class="st0" d="M271.5,164.2c-3.4,0-5.9-0.6-7.5-1.7c-1.7-1.1-2.8-2.6-3.3-4.5c-0.5-1.9-0.8-4.1-0.8-6.5V144
			c0-3,0.3-5.4,1-7.3s1.8-3.3,3.5-4.3c1.7-0.9,4.1-1.4,7.1-1.4c3.1,0,5.5,0.4,7.1,1.3s2.7,2.1,3.2,3.6s0.8,3.4,0.8,5.5v1.5h-5.1
			v-1.6c0-1.9-0.2-3.4-0.6-4.4s-1-1.8-1.9-2.2s-2-0.6-3.5-0.6c-1.7,0-3,0.3-3.9,0.9s-1.5,1.6-1.8,2.9c-0.3,1.4-0.5,3.2-0.5,5.4v9
			c0,3.2,0.4,5.5,1.3,6.8c0.9,1.3,2.5,2,5,2c1.7,0,3-0.3,3.8-0.9c0.9-0.6,1.4-1.4,1.7-2.6s0.4-2.6,0.4-4.3v-1.8h5.1v1.6
			c0,2.1-0.3,4.1-0.8,5.7c-0.5,1.6-1.6,2.9-3.2,3.9C277.1,163.7,274.7,164.2,271.5,164.2z"/>
		<path class="st0" d="M306.6,164.2c-2.7,0-4.9-0.4-6.7-1.2c-1.7-0.8-3-2.1-3.9-4c-0.8-1.9-1.2-4.3-1.2-7.4v-8.1
			c0-3.2,0.4-5.7,1.3-7.5c0.8-1.8,2.2-3.1,3.9-3.8s4-1.1,6.6-1.1c3.1,0,5.5,0.5,7.1,1.4s2.7,2.4,3.4,4.4c0.6,1.9,0.9,4.4,0.9,7.5
			v2.9h-17.7v5.6c0,2.1,0.2,3.7,0.6,4.9c0.4,1.2,1.1,2.1,2,2.6c0.9,0.5,2.1,0.8,3.6,0.8c1.1,0,2.1-0.2,3-0.5
			c0.9-0.3,1.6-0.9,2.1-1.8c0.5-0.9,0.8-2.2,0.8-3.9v-2.2h5.4v1.8c0,2.9-0.8,5.3-2.5,7C313.8,163.3,310.8,164.2,306.6,164.2z
			 M300.3,144.9h12.2v-2.7c0-1.7-0.1-3.2-0.4-4.4c-0.2-1.2-0.8-2.1-1.6-2.8c-0.8-0.6-2.2-1-4-1c-1.5,0-2.7,0.2-3.7,0.7
			s-1.6,1.4-2,2.6c-0.4,1.2-0.6,3-0.6,5.3V144.9z"/>
	</g>
</g>
<rect x="141.7" class="st1" width="188.9" height="178.8"/>
</svg>
