<?xml version="1.0" encoding="utf-8"?>
<!-- Generator: Adobe Illustrator 25.2.1, SVG Export Plug-In . SVG Version: 6.00 Build 0)  -->
<!DOCTYPE svg PUBLIC "-//W3C//DTD SVG 1.1//EN" "http://www.w3.org/Graphics/SVG/1.1/DTD/svg11.dtd" [
	<!ENTITY st0 "fill:#FFFFFF;">
	<!ENTITY st1 "font-family:'BerlinSansFBDemi-Bold';">
	<!ENTITY st2 "font-size:21.2318px;">
	<!ENTITY st3 "font-size:10.0756px;">
]>
<svg version="1.1" id="Слой_1" xmlns="http://www.w3.org/2000/svg" xmlns:xlink="http://www.w3.org/1999/xlink" x="0px" y="0px"
	 viewBox="0 0 298.2 79" style="enable-background:new 0 0 298.2 79;" xml:space="preserve">
<g>
	<g>
		<path style="&st0;" d="M67.6,35.5c0,7.4-2,13.7-6,19c-4.1,5.4-9.7,8.9-16.8,10.4c1.4,2.8,3.4,5.4,6.2,7.8c0.2,0.2,0.4,0.4,0.4,0.5
			c0,1.1-3.4,1.7-10.2,1.7c-5,0-8.1-0.2-9.2-0.6c-0.6-0.2-1-0.7-1.2-1.5c-0.3-1.6-0.4-4.3-0.3-8c-6.8-1.7-12.2-5.3-16.1-10.7
			c-3.9-5.3-5.8-11.5-5.8-18.6c0-8.6,2.8-15.8,8.3-21.7c5.6-6,12.7-9,21.3-9c8.5,0,15.6,3,21.2,9C64.8,19.7,67.6,26.9,67.6,35.5z
			 M51.9,35.4c0-4.3-1.2-7.8-3.7-10.7c-2.6-3-6-4.5-10.2-4.5c-4.3,0-7.7,1.5-10.2,4.4c-2.4,2.8-3.6,6.4-3.6,10.8
			c0,4.5,1.2,8.1,3.5,10.8c2.5,2.9,5.9,4.3,10.3,4.3c4.3,0,7.7-1.5,10.2-4.4C50.6,43.3,51.9,39.7,51.9,35.4z"/>
		<path style="&st0;" d="M132.4,63.5c0,0.5-0.3,0.8-1,1c-0.8,0.2-3.4,0.3-7.7,0.3c-4,0-6.5-0.1-7.6-0.3c-0.9-0.2-1.5-0.8-1.8-1.9
			c-0.9-4-1.7-6.1-2.2-6.4c-0.4-0.2-4.1-0.3-11.1-0.3c-4.7,0-7.2,0.1-7.5,0.4c-0.5,0.4-1,1.9-1.6,4.4c-0.5,2.3-1.2,3.5-1.9,3.7
			c-0.9,0.2-4.1,0.3-9.5,0.3c-4.2,0-6.3-0.4-6.3-1.2c0-0.7,3.1-9.6,9.4-26.5C90.4,18.7,94,8.6,94.6,6.8c0.3-1,0.7-1.6,1.2-1.6
			c0.7,0,1.9,0.1,3.5,0.2s2.7,0.2,3.5,0.2c0.7,0,1.8,0,3.3-0.1s2.5-0.1,3.3-0.1c0.5,0,1,0.5,1.5,1.4c1.4,2.9,5.3,12.9,11.9,29.9
			C129.1,53.8,132.4,62.7,132.4,63.5z M103,25.7c-0.6,1.2-1.6,3.9-2.9,7.9c-1.5,4.3-2.2,6.8-2.2,7.6c0,0.5,0.8,0.8,2.5,0.8
			c0.9,0.1,2.3,0.1,4.2,0.1c1.8,0,2.8-0.2,3-0.7c0.1-0.1,0.1-0.3,0.1-0.6c0-0.9-0.6-3.4-1.9-7.5C104.5,29.3,103.6,26.8,103,25.7z"/>
		<path style="&st0;" d="M178.8,65.2c-2.4,0-5.5-0.1-9.3-0.2c-5-0.1-8.1-0.2-9.3-0.2l-12.4-0.2c-1.2,0-3,0-5.3-0.2
			c-0.8-0.1-1.2-0.6-1.2-1.3c0-3,0-7.5,0.1-13.5s0.1-10.5,0.1-13.5c0-3.2-0.1-8-0.3-14.4s-0.3-11.2-0.3-14.4c0-0.6,0.4-0.9,1.2-0.9
			s2.1,0,3.7,0.1c1.6,0.1,2.9,0.1,3.7,0.1c0.9,0,2.3,0,4.1-0.1s3.2-0.1,4.1-0.1c0.4,0,0.6,0.3,0.6,0.8v0.5c-0.3,5.2-0.7,13-1.1,23.4
			V42c0,3.5,0,6.1,0,7.8c0,0.3,0.1,0.7,0.1,1s0.2,0.5,0.6,0.6c0,0,0.4,0,1.1,0c2.5,0,6.2-0.1,11.2-0.4c5-0.3,8.7-0.4,11.2-0.4
			c0.7,0,1.1,0.3,1.1,1c0,4.7-0.3,8.8-1,12.2c-0.1,0.7-0.4,1.1-0.9,1.3C180.3,65.2,179.8,65.2,178.8,65.2z"/>
		<path style="&st0;" d="M245.8,63.5c0,0.5-0.3,0.8-1,1c-0.8,0.2-3.4,0.3-7.7,0.3c-4,0-6.5-0.1-7.6-0.3c-0.9-0.2-1.5-0.8-1.8-1.9
			c-0.9-4-1.7-6.1-2.2-6.4c-0.4-0.2-4.1-0.3-11.1-0.3c-4.7,0-7.2,0.1-7.5,0.4c-0.5,0.4-1,1.9-1.6,4.4c-0.5,2.3-1.2,3.5-1.9,3.7
			c-0.9,0.2-4.1,0.3-9.5,0.3c-4.2,0-6.3-0.4-6.3-1.2c0-0.7,3.1-9.6,9.4-26.5c6.8-18.3,10.4-28.4,11-30.2c0.3-1,0.7-1.6,1.2-1.6
			c0.7,0,1.9,0.1,3.5,0.2s2.7,0.2,3.5,0.2c0.7,0,1.8,0,3.3-0.1s2.5-0.1,3.3-0.1c0.5,0,1,0.5,1.5,1.4c1.4,2.9,5.3,12.9,11.9,29.9
			C242.5,53.8,245.8,62.7,245.8,63.5z M216.4,25.7c-0.6,1.2-1.6,3.9-2.9,7.9c-1.5,4.3-2.2,6.8-2.2,7.6c0,0.5,0.8,0.8,2.5,0.8
			c0.9,0.1,2.3,0.1,4.2,0.1c1.8,0,2.8-0.2,3-0.7c0.1-0.1,0.1-0.3,0.1-0.6c0-0.9-0.6-3.4-1.9-7.5C217.9,29.3,217,26.8,216.4,25.7z"/>
	</g>
	<text transform="matrix(1 0 0 1 6.152 89.9778)" style="&st0; &st1; &st2;">       </text>
	<g>
		<path style="&st0;" d="M278.4,58.2c3.6,0,6.3,0,8.2,0c0.3,0,0.8,0,1.6-0.1c0.7,0,1.2-0.1,1.6-0.1c0.3,0,0.4,0.2,0.5,0.5
			c0.1,0.6,0.2,1.7,0.2,3.2c0,1.6-0.1,2.6-0.2,3c-0.1,0.3-0.2,0.5-0.5,0.5c0,0-0.3,0-0.8,0c-1.2,0-2.9,0-5.2,0c-2.3,0-4.1,0-5.2,0
			c-5.5,0-8,0-7.5,0c-2.9,0-5.4,0.2-7.5,0.5c-0.1,0-0.3,0-0.3,0c-0.3,0-0.4-0.2-0.4-0.5v-7.1c0-0.3,0.1-0.5,0.4-0.5h0.4
			C269,58,274,58.2,278.4,58.2z"/>
		<path style="&st0;" d="M280.4,33.2c1,0,2.5-0.1,4.5-0.2c2-0.1,3.5-0.2,4.5-0.2c0.5,0,0.8,0.2,0.8,0.7c0.1,1.6,0.2,3.5,0.2,5.6
			c0,0.3-0.4,0.4-1.1,0.5c-0.8,0.1-1.1,0.2-1.1,0.3c0.1,0.1,0.2,0.2,0.3,0.4c1.5,1.5,2.2,3.1,2.2,4.8c0,2.6-1,4.7-3,6.4
			c-1.9,1.6-4.1,2.4-6.8,2.4c-3,0-5.5-0.8-7.3-2.5c-1.9-1.7-2.9-4.1-2.9-7.1c0-2.1,0.7-3.7,2.2-4.9c0.1-0.1,0.1-0.1,0.1-0.1
			c0-0.1-0.3-0.3-1-0.4c-0.6-0.2-1-0.3-1-0.5c0-0.5,0.1-1.4,0.4-2.8c0.3-1.3,0.5-2.3,0.7-2.8c0.1-0.2,0.2-0.3,0.3-0.3
			c0.1,0,0.2,0,0.4,0.1C275.2,33,277.7,33.2,280.4,33.2z M280.5,39.6c-1.1,0-2,0.4-2.8,1.1s-1.1,1.6-1.1,2.8s0.4,2.1,1.1,2.8
			s1.6,1.1,2.8,1.1c1.1,0,2-0.4,2.7-1.1c0.8-0.7,1.1-1.6,1.1-2.7c0-1.1-0.4-2-1.1-2.8C282.5,40,281.6,39.6,280.5,39.6z"/>
		<path style="&st0;" d="M280.6,6.4c2.8,0,5.1,0.8,6.9,2.4c2,1.7,3,3.9,3,6.6c0,2-0.6,3.6-1.7,4.8c-0.1,0.1-0.1,0.2-0.1,0.2
			c0,0.1,0.2,0.3,0.7,0.4s0.8,0.2,0.8,0.4c0.1,0.2,0.1,2.1,0.1,5.7c0,0.8-0.2,1.3-0.5,1.3c0,0-0.1,0-0.3,0
			c-2.1-0.3-6.1-0.4-11.9-0.4c-5.6,0-10.5,0.2-14.6,0.6h-0.2c-0.2,0-0.3-0.2-0.4-0.6c0-0.3-0.1-1.4-0.3-3.5
			c-0.1-1.4-0.2-2.6-0.2-3.5c0-0.3,0.2-0.4,0.6-0.4c0.5,0,1.2,0,2,0.1c1,0.1,1.7,0.1,2,0.1c1.3,0.1,3.1,0.1,5.3,0.1
			c0.4,0,0.6-0.1,0.6-0.3c0-0.1-0.1-0.2-0.2-0.3c-1.3-1.2-1.9-2.8-1.9-4.7c0-2.9,1-5.2,2.9-6.8C275.2,7.1,277.6,6.4,280.6,6.4z
			 M280.4,13.6c-1.1,0-2,0.3-2.8,1s-1.1,1.6-1.1,2.6c0,1.1,0.4,2,1.1,2.6s1.7,1,2.8,1c1.2,0,2.1-0.3,2.8-0.9
			c0.7-0.7,1.1-1.6,1.1-2.7s-0.4-2-1.2-2.7C282.4,13.9,281.5,13.6,280.4,13.6z"/>
	</g>
	<text transform="matrix(0 -1.0098 1 0 302.3003 67.085)" style="&st0; &st1; &st3;">       </text>
</g>
</svg>
